<svg id="Laag_1" data-name="Laag 1" xmlns="http://www.w3.org/2000/svg" viewBox="0 0 1985 1669.17"><defs><style>.cls-1{fill:#bb4def;}.cls-2{fill:#f72585;}.cls-3{fill:#ffd000;}.cls-4{fill:#64ff00;}.cls-5{fill:#4cc9f0;}</style></defs><rect class="cls-1" x="166.64" y="99.05" width="59.26" height="24.62" transform="translate(-2.25 218.67) rotate(-57.96)"/><rect class="cls-2" x="264.68" y="146.73" width="24.62" height="59.26" transform="translate(-51.19 187.46) rotate(-34.42)"/><rect class="cls-1" x="140.49" y="223.82" width="59.26" height="24.62" transform="translate(-103.69 137.51) rotate(-34.42)"/><rect class="cls-3" x="244.89" y="283.78" width="59.26" height="24.62" transform="translate(-122.1 371.74) rotate(-57.96)"/><rect class="cls-4" x="302.92" y="59.01" width="59.26" height="24.62"/><rect class="cls-5" x="110.52" y="331.01" width="24.62" height="59.26" transform="translate(-182.36 132.58) rotate(-34.42)"/><rect class="cls-5" x="371.15" y="157.86" width="59.26" height="24.62" transform="translate(-11.36 310.61) rotate(-41.82)"/><rect class="cls-5" x="388.48" y="268.61" width="24.62" height="59.26"/><rect class="cls-2" x="332.98" y="345.46" width="24.62" height="59.26" transform="translate(-151.57 260.86) rotate(-34.42)"/><rect class="cls-5" x="86.13" y="140.54" width="24.62" height="59.26" transform="matrix(0.94, -0.35, 0.35, 0.94, -53.27, 45.14)"/><rect class="cls-3" x="202.92" y="402.2" width="59.26" height="24.62"/><rect class="cls-3" x="22.3" y="271.99" width="59.26" height="24.62" transform="translate(-216.62 177.52) rotate(-57.96)"/><rect class="cls-4" x="644.53" y="41.68" width="24.62" height="59.26" transform="translate(74.7 383.78) rotate(-34.42)"/><rect class="cls-1" x="522.82" y="126.17" width="59.26" height="24.62" transform="translate(18.46 336.54) rotate(-34.42)"/><rect class="cls-5" x="622.51" y="184.41" width="59.26" height="24.62" transform="translate(139.45 645.2) rotate(-57.96)"/><rect class="cls-1" x="498.5" y="229.49" width="24.62" height="59.26" transform="translate(-57.03 334.12) rotate(-34.42)"/><rect class="cls-5" x="755.14" y="51.68" width="59.26" height="24.62" transform="translate(157.29 539.61) rotate(-41.82)"/><rect class="cls-4" x="758.98" y="156.22" width="24.62" height="59.26"/><rect class="cls-2" x="720.54" y="254.67" width="24.62" height="59.26" transform="translate(-32.39 464.04) rotate(-34.42)"/><rect class="cls-1" x="448.23" y="34.35" width="24.62" height="59.26" transform="matrix(0.94, -0.35, 0.35, 0.94, 6.68, 165.01)"/><rect class="cls-3" x="590.9" y="300.67" width="59.26" height="24.62"/><rect class="cls-4" x="136.18" y="492.04" width="59.26" height="24.62" transform="translate(-349.68 377.38) rotate(-57.96)"/><rect class="cls-5" x="253.7" y="537.41" width="24.62" height="59.26" transform="translate(-273.96 249.66) rotate(-34.42)"/><rect class="cls-4" x="123.86" y="631.84" width="59.26" height="24.62" transform="translate(-337.25 199.56) rotate(-34.42)"/><rect class="cls-3" x="223.55" y="690.09" width="59.26" height="24.62" transform="translate(-476.55 544.43) rotate(-57.96)"/><rect class="cls-4" x="295.94" y="467.81" width="59.26" height="24.62"/><rect class="cls-1" x="34.61" y="686.41" width="59.26" height="24.62" transform="translate(-620.63 546.14) rotate(-72.19)"/><rect class="cls-2" x="360.18" y="562.01" width="59.26" height="24.62" transform="translate(-283.65 406.27) rotate(-41.82)"/><rect class="cls-2" x="360.02" y="661.89" width="24.62" height="59.26"/><rect class="cls-1" x="100.88" y="34.35" width="24.62" height="59.26" transform="translate(-16.35 75.19) rotate(-34.42)"/><rect class="cls-5" x="47.94" y="546.67" width="24.62" height="59.26" transform="translate(-197.63 57.41) rotate(-20.46)"/><rect class="cls-4" x="39.62" y="408.55" width="24.62" height="59.26"/><rect class="cls-5" x="678.35" y="370.51" width="24.62" height="59.26" transform="translate(-107.08 427.29) rotate(-32.04)"/><rect class="cls-1" x="545.58" y="434.8" width="59.26" height="24.62" transform="translate(-118.76 668.86) rotate(-55.58)"/><rect class="cls-2" x="666.55" y="474.71" width="24.62" height="59.26" transform="translate(-120.92 779.24) rotate(-55.58)"/><rect class="cls-1" x="603.86" y="552.83" width="24.62" height="59.26" transform="translate(-215.13 415.55) rotate(-32.04)"/><rect class="cls-4" x="464.53" y="348.34" width="59.26" height="24.62"/><rect class="cls-5" x="694.75" y="587.31" width="59.26" height="24.62" transform="translate(-179.72 858.21) rotate(-55.58)"/><rect class="cls-2" x="439.1" y="424.75" width="24.62" height="59.26" transform="translate(-188.21 487.78) rotate(-48.18)"/><rect class="cls-5" x="478.68" y="540.37" width="24.62" height="59.26"/><rect class="cls-3" x="462.59" y="669.16" width="59.26" height="24.62" transform="translate(-348.16 702.28) rotate(-55.58)"/><rect class="cls-2" x="746.01" y="442.07" width="59.26" height="24.62" transform="translate(78.82 1022.29) rotate(-69.54)"/><rect class="cls-2" x="599.81" y="669.16" width="59.26" height="24.62"/><rect class="cls-2" x="1246.52" y="181.21" width="59.26" height="24.62" transform="translate(395.13 1136.82) rotate(-55.58)"/><rect class="cls-5" x="1266.31" y="283.62" width="24.62" height="59.26" transform="translate(28.55 725.95) rotate(-32.04)"/><rect class="cls-3" x="1190.95" y="76.16" width="59.26" height="24.62"/><rect class="cls-1" x="1140.04" y="157.69" width="24.62" height="59.26" transform="translate(244.33 921.16) rotate(-48.18)"/><rect class="cls-5" x="1140.04" y="285.77" width="24.62" height="59.26"/><rect class="cls-3" x="1178.22" y="379.94" width="59.26" height="24.62" transform="translate(201.52 1166.87) rotate(-55.58)"/><rect class="cls-1" x="866.67" y="76.16" width="59.26" height="24.62" transform="translate(316.66 777.82) rotate(-55.58)"/><rect class="cls-5" x="988.37" y="126" width="24.62" height="59.26" transform="translate(306.64 893.12) rotate(-55.58)"/><rect class="cls-2" x="888.69" y="184.25" width="24.62" height="59.26" transform="translate(23.76 510.5) rotate(-32.04)"/><rect class="cls-5" x="1012.69" y="263.97" width="59.26" height="24.62" transform="translate(225.22 979.92) rotate(-55.58)"/><rect class="cls-3" x="790.66" y="289.15" width="59.26" height="24.62" transform="translate(107.93 807.71) rotate(-55.58)"/><rect class="cls-1" x="1062.96" y="68.83" width="59.26" height="24.62" transform="translate(634.68 1076.46) rotate(-69.54)"/><rect class="cls-3" x="902.97" y="317.83" width="59.26" height="24.62"/><rect class="cls-3" x="1257.49" y="571.89" width="59.26" height="24.62" transform="translate(77.63 1315.71) rotate(-55.58)"/><rect class="cls-4" x="1279.22" y="679.05" width="24.62" height="59.26" transform="translate(-179.24 793.01) rotate(-32.04)"/><rect class="cls-2" x="1197.93" y="484.97" width="59.26" height="24.62"/><rect class="cls-1" x="1151.02" y="561.84" width="24.62" height="59.26" transform="translate(-53.19 1063.99) rotate(-48.18)"/><rect class="cls-4" x="1168.5" y="679.05" width="24.62" height="59.26"/><rect class="cls-4" x="832.85" y="404.99" width="59.26" height="24.62" transform="translate(51.23 927.08) rotate(-57.96)"/><rect class="cls-3" x="965.62" y="434.63" width="24.62" height="59.26" transform="translate(-91.2 634.09) rotate(-34.42)"/><rect class="cls-1" x="844.65" y="509.19" width="59.26" height="24.62" transform="translate(-141.71 585.53) rotate(-34.42)"/><rect class="cls-4" x="907.33" y="587.31" width="59.26" height="24.62" transform="translate(-68.35 1075.83) rotate(-57.96)"/><rect class="cls-4" x="1029.34" y="365.49" width="59.26" height="24.62"/><rect class="cls-5" x="803.17" y="577.67" width="24.62" height="59.26" transform="translate(-200.51 567.31) rotate(-34.42)"/><rect class="cls-5" x="1072.09" y="459.23" width="59.26" height="24.62" transform="translate(-33.73 854.8) rotate(-41.82)"/><rect class="cls-4" x="1049.83" y="557.53" width="24.62" height="59.26"/><rect class="cls-1" x="1048.6" y="668.99" width="24.62" height="59.26" transform="translate(-209.15 722.04) rotate(-34.42)"/><rect class="cls-1" x="764.26" y="661.89" width="24.62" height="59.26" transform="translate(-192.72 315.04) rotate(-20.46)"/><rect class="cls-5" x="689.93" y="750.69" width="59.26" height="24.62"/><rect class="cls-1" x="65.78" y="810.96" width="24.62" height="59.26" transform="translate(-434 169.43) rotate(-32.04)"/><rect class="cls-2" x="1233.09" y="820.86" width="59.26" height="24.62" transform="translate(-138.35 1403.82) rotate(-55.58)"/><rect class="cls-4" x="177.89" y="760.99" width="24.62" height="59.26" transform="matrix(0.57, -0.82, 0.82, 0.57, -569.5, 500.6)"/><rect class="cls-4" x="1279.22" y="991.85" width="24.62" height="59.26" transform="translate(-345.17 840.65) rotate(-32.04)"/><rect class="cls-5" x="1110.15" y="801.41" width="59.26" height="24.62"/><rect class="cls-3" x="980.2" y="753.72" width="24.62" height="59.26" transform="translate(-192.05 341.17) rotate(-17.81)"/><rect class="cls-5" x="1170.72" y="882.32" width="24.62" height="59.26" transform="translate(-285.44 1185.44) rotate(-48.18)"/><rect class="cls-4" x="1142.6" y="983.23" width="24.62" height="59.26"/><rect class="cls-2" x="873.34" y="707.24" width="59.26" height="24.62" transform="translate(-86.81 1314.07) rotate(-69.54)"/><rect class="cls-5" x="791.7" y="799.21" width="59.26" height="24.62" transform="translate(-314.92 606.38) rotate(-34.42)"/><rect class="cls-5" x="898.91" y="889.24" width="59.26" height="24.62" transform="translate(-328.26 1210.46) rotate(-57.96)"/><rect class="cls-1" x="819.43" y="876.61" width="24.62" height="59.26" transform="translate(-366.64 628.85) rotate(-34.42)"/><rect class="cls-3" x="1053.72" y="852.69" width="24.62" height="59.26"/><rect class="cls-5" x="1022.93" y="958.62" width="24.62" height="59.26" transform="translate(-377.36 758.24) rotate(-34.42)"/><rect class="cls-1" x="885.64" y="988.25" width="59.26" height="24.62"/><rect class="cls-5" x="245.28" y="873.66" width="24.62" height="59.26" transform="translate(-465.51 303.78) rotate(-34.42)"/><rect class="cls-1" x="264.27" y="1000.56" width="59.26" height="24.62" transform="translate(-720.62 724.73) rotate(-57.96)"/><rect class="cls-4" x="287.52" y="804.06" width="59.26" height="24.62"/><rect class="cls-4" x="351.75" y="898.25" width="59.26" height="24.62" transform="translate(-510.02 486.32) rotate(-41.82)"/><rect class="cls-3" x="376.17" y="1044.54" width="24.62" height="59.26"/><rect class="cls-2" x="537.16" y="771.04" width="59.26" height="24.62" transform="translate(-399.79 808.08) rotate(-55.58)"/><rect class="cls-4" x="658.13" y="810.96" width="24.62" height="59.26" transform="translate(-401.95 918.46) rotate(-55.58)"/><rect class="cls-5" x="595.44" y="889.07" width="24.62" height="59.26" transform="translate(-394.78 462.28) rotate(-32.04)"/><rect class="cls-2" x="699.6" y="923.07" width="59.26" height="24.62" transform="translate(-454.58 1008.17) rotate(-55.58)"/><rect class="cls-5" x="430.68" y="760.99" width="24.62" height="59.26" transform="matrix(0.67, -0.75, 0.75, 0.67, -441.59, 593.53)"/><rect class="cls-1" x="470.26" y="876.61" width="24.62" height="59.26"/><rect class="cls-4" x="454.17" y="1005.4" width="59.26" height="24.62" transform="translate(-629.19 841.51) rotate(-55.58)"/><rect class="cls-3" x="752.21" y="1005.5" width="59.26" height="24.62" transform="translate(-445.04 1394.59) rotate(-69.54)"/><rect class="cls-3" x="597.13" y="1005.5" width="59.26" height="24.62"/><rect class="cls-4" x="127.02" y="929.25" width="59.26" height="24.62" transform="translate(-797.74 926.44) rotate(-79.65)"/><rect class="cls-5" x="51.93" y="968.51" width="24.62" height="59.26" transform="translate(-905.95 754.95) rotate(-72.25)"/><rect class="cls-2" x="167.66" y="1027.71" width="24.62" height="59.26" transform="translate(-415.56 165.32) rotate(-24.07)"/><rect class="cls-1" x="834.99" y="1055.95" width="24.62" height="59.26" transform="translate(-446.82 614.77) rotate(-32.04)"/><rect class="cls-3" x="693.03" y="1061.99" width="24.62" height="59.26"/><rect class="cls-4" x="540.14" y="1061.99" width="24.62" height="59.26" transform="translate(-520.34 503.43) rotate(-34.42)"/><rect class="cls-1" x="988.37" y="1061.99" width="24.62" height="59.26" transform="translate(-480.09 1109.42) rotate(-48.18)"/><rect class="cls-1" x="1190.95" y="1085.58" width="59.26" height="24.62"/><rect class="cls-3" x="1060.36" y="1558.58" width="59.26" height="24.62" transform="translate(-819.87 1661.62) rotate(-57.96)"/><rect class="cls-5" x="970.82" y="1460.33" width="24.62" height="59.26" transform="translate(-670.1 816.63) rotate(-34.42)"/><rect class="cls-5" x="1072.09" y="1446.44" width="59.26" height="24.62" transform="translate(-631.69 878.21) rotate(-34.42)"/><rect class="cls-4" x="955.96" y="1357.92" width="59.26" height="24.62" transform="translate(-698.78 1478.89) rotate(-57.96)"/><rect class="cls-5" x="885.64" y="1590.03" width="59.26" height="24.62"/><rect class="cls-2" x="1124.98" y="1276.04" width="24.62" height="59.26" transform="translate(-538.93 871.51) rotate(-34.42)"/><rect class="cls-2" x="829.7" y="1483.84" width="59.26" height="24.62" transform="translate(-778.73 954.23) rotate(-41.82)"/><rect class="cls-1" x="847.02" y="1338.44" width="24.62" height="59.26"/><rect class="cls-4" x="902.52" y="1261.6" width="24.62" height="59.26" transform="translate(-569.72 743.23) rotate(-34.42)"/><rect class="cls-4" x="1223.67" y="1466.52" width="24.62" height="59.26" transform="translate(-444.98 526.37) rotate(-20.46)"/><rect class="cls-4" x="997.93" y="1239.51" width="59.26" height="24.62"/><rect class="cls-1" x="1178.55" y="1369.71" width="59.26" height="24.62" transform="translate(-604.26 1673.12) rotate(-57.96)"/><rect class="cls-1" x="590.97" y="1565.37" width="24.62" height="59.26" transform="translate(-795.99 620.3) rotate(-34.42)"/><rect class="cls-2" x="678.03" y="1515.54" width="59.26" height="24.62" transform="matrix(0.82, -0.57, 0.57, 0.82, -739.75, 667.55)"/><rect class="cls-1" x="578.34" y="1457.29" width="59.26" height="24.62" transform="matrix(0.53, -0.85, 0.85, 0.53, -960.33, 1205.44)"/><rect class="cls-1" x="736.99" y="1377.57" width="24.62" height="59.26" transform="translate(-664.26 669.96) rotate(-34.42)"/><rect class="cls-3" x="1886.43" y="43.57" width="24.62" height="59.26"/><rect class="cls-5" x="1897.68" y="157.87" width="59.26" height="24.62" transform="translate(697.46 1663.82) rotate(-55.58)"/><rect class="cls-2" x="768.08" y="1577.68" width="24.62" height="59.26" transform="translate(-512.57 374.14) rotate(-20.46)"/><rect class="cls-1" x="609.95" y="1341.03" width="59.26" height="24.62"/><rect class="cls-5" x="1064.67" y="1149.67" width="59.26" height="24.62" transform="translate(-471.2 1473.26) rotate(-57.96)"/><rect class="cls-3" x="1703.19" y="1564.47" width="24.62" height="59.26" transform="translate(-600.73 1248.86) rotate(-34.42)"/><rect class="cls-1" x="1798.38" y="1504.69" width="59.26" height="24.62" transform="translate(-537.44 1298.96) rotate(-34.42)"/><rect class="cls-5" x="1698.7" y="1446.44" width="59.26" height="24.62" transform="translate(-425.07 2150.09) rotate(-57.96)"/><rect class="cls-5" x="904.91" y="1173.89" width="59.26" height="24.62"/><rect class="cls-4" x="1887.63" y="1450.12" width="59.26" height="24.62" transform="translate(-61.56 2840.42) rotate(-72.19)"/><rect class="cls-4" x="1562.07" y="1574.52" width="59.26" height="24.62" transform="translate(-652.59 1465.7) rotate(-41.82)"/><rect class="cls-4" x="1596.87" y="1439.99" width="24.62" height="59.26"/><rect class="cls-1" x="1192.25" y="1553.07" width="24.62" height="59.26" transform="translate(-683.75 958.04) rotate(-34.42)"/><rect class="cls-5" x="1908.95" y="1555.21" width="24.62" height="59.26" transform="translate(-432.76 771.48) rotate(-20.46)"/><rect class="cls-5" x="1195.87" y="1198.51" width="24.62" height="59.26"/><rect class="cls-1" x="1912.87" y="265.82" width="59.26" height="24.62" transform="translate(676.33 1777.29) rotate(-57.96)"/><rect class="cls-1" x="655.27" y="1206.91" width="59.26" height="24.62" transform="translate(-707.99 1094.99) rotate(-55.58)"/><rect class="cls-2" x="1353.03" y="1549.06" width="24.62" height="59.26" transform="translate(-629.5 964.65) rotate(-32.04)"/><rect class="cls-2" x="736.31" y="1293.37" width="59.26" height="24.62"/><rect class="cls-5" x="1923.46" y="455.86" width="24.62" height="59.26" transform="translate(64.51 1179.26) rotate(-34.42)"/><rect class="cls-4" x="796.39" y="1182.31" width="24.62" height="59.26" transform="translate(-633.72 1006.43) rotate(-48.18)"/><rect class="cls-1" x="1478.21" y="1561.51" width="24.62" height="59.26"/><rect class="cls-5" x="1459.65" y="1467.37" width="59.26" height="24.62" transform="translate(-573.16 1871.76) rotate(-55.58)"/><rect class="cls-4" x="1876.56" y="343.32" width="24.62" height="59.26" transform="translate(-11.22 683.72) rotate(-20.46)"/><rect class="cls-5" x="1322.43" y="1467.37" width="59.26" height="24.62"/><rect class="cls-3" x="1371.7" y="49.77" width="24.62" height="59.26" transform="translate(197.46 796.25) rotate(-34.42)"/><rect class="cls-4" x="1351.9" y="186.82" width="59.26" height="24.62" transform="translate(479.9 1264.65) rotate(-57.96)"/><rect class="cls-1" x="1478.17" y="60.9" width="59.26" height="24.62" transform="translate(335.36 1024.1) rotate(-41.82)"/><rect class="cls-3" x="1495.49" y="171.65" width="24.62" height="59.26"/><rect class="cls-2" x="1439.99" y="248.49" width="24.62" height="59.26" transform="translate(97.08 869.65) rotate(-34.42)"/><rect class="cls-4" x="1629.84" y="29.2" width="59.26" height="24.62" transform="translate(267.11 945.33) rotate(-34.42)"/><rect class="cls-5" x="1729.53" y="87.45" width="59.26" height="24.62" transform="translate(741.45 1538.11) rotate(-57.96)"/><rect class="cls-3" x="1605.52" y="132.52" width="24.62" height="59.26" transform="matrix(0.82, -0.57, 0.57, 0.82, 191.62, 942.92)"/><rect class="cls-5" x="1832.36" y="142.91" width="24.62" height="59.26" transform="translate(225.47 1072.97) rotate(-34.42)"/><rect class="cls-2" x="1712.55" y="201.57" width="59.26" height="24.62"/><rect class="cls-5" x="1329.41" y="397.18" width="24.62" height="59.26" transform="translate(-6.33 833.18) rotate(-34.42)"/><rect class="cls-3" x="1362.04" y="535" width="59.26" height="24.62" transform="translate(-45.8 135.03) rotate(-5.47)"/><rect class="cls-2" x="1390.68" y="360.65" width="59.26" height="24.62"/><rect class="cls-5" x="1467.19" y="465.05" width="59.26" height="24.62" transform="translate(63.06 1119.75) rotate(-41.82)"/><rect class="cls-1" x="1467.04" y="564.93" width="24.62" height="59.26"/><rect class="cls-2" x="1785.37" y="273.54" width="24.62" height="59.26" transform="translate(112.94 999.75) rotate(-32.04)"/><rect class="cls-4" x="1652.6" y="337.83" width="59.26" height="24.62" transform="translate(442.47 1539.88) rotate(-55.58)"/><rect class="cls-4" x="1773.57" y="377.75" width="24.62" height="59.26" transform="translate(440.31 1650.27) rotate(-55.58)"/><rect class="cls-4" x="1710.88" y="455.86" width="24.62" height="59.26" transform="translate(4.88 988) rotate(-32.04)"/><rect class="cls-4" x="1571.55" y="251.37" width="59.26" height="24.62"/><rect class="cls-5" x="1815.04" y="480.88" width="59.26" height="24.62" transform="matrix(0.57, -0.82, 0.82, 0.57, 395.09, 1736.07)"/><rect class="cls-4" x="1546.12" y="327.79" width="24.62" height="59.26" transform="translate(252.87 1280.44) rotate(-48.18)"/><rect class="cls-5" x="1585.7" y="443.41" width="24.62" height="59.26"/><rect class="cls-1" x="1569.61" y="572.2" width="59.26" height="24.62" transform="translate(213.07 1573.31) rotate(-55.58)"/><rect class="cls-3" x="1853.95" y="565.1" width="59.26" height="24.62" transform="translate(684.24 2140.37) rotate(-69.54)"/><rect class="cls-1" x="1910.96" y="636.57" width="59.26" height="24.62"/><rect class="cls-3" x="1891.11" y="1290.92" width="24.62" height="59.26" transform="translate(-410.63 1210.77) rotate(-32.04)"/><rect class="cls-1" x="1385.12" y="689.41" width="24.62" height="59.26" transform="translate(-70.26 1280.94) rotate(-48.18)"/><rect class="cls-4" x="1779" y="1340.89" width="24.62" height="59.26" transform="translate(-351.82 2073.45) rotate(-55.58)"/><rect class="cls-2" x="1350.81" y="839.48" width="24.62" height="59.26" transform="translate(392.21 2161.7) rotate(-85.61)"/><rect class="cls-2" x="1490.74" y="687.29" width="59.26" height="24.62"/><rect class="cls-5" x="1638.02" y="656.92" width="59.26" height="24.62" transform="translate(520.36 2052.21) rotate(-72.19)"/><rect class="cls-1" x="1447.49" y="785.52" width="59.26" height="24.62" transform="translate(-155.66 1188.27) rotate(-41.82)"/><rect class="cls-5" x="1481.79" y="878.89" width="24.62" height="59.26"/><rect class="cls-4" x="1744.88" y="575.8" width="24.62" height="59.26" transform="matrix(0.94, -0.35, 0.35, 0.94, -100.78, 652.36)"/><rect class="cls-5" x="1826.51" y="667.77" width="24.62" height="59.26" transform="translate(224.09 1820.02) rotate(-55.58)"/><rect class="cls-5" x="1719.3" y="757.79" width="24.62" height="59.26" transform="translate(-153.99 1038.44) rotate(-32.04)"/><rect class="cls-4" x="1798.79" y="779.82" width="59.26" height="24.62" transform="translate(141.43 1852.62) rotate(-55.58)"/><rect class="cls-3" x="1581.82" y="738.57" width="24.62" height="59.26"/><rect class="cls-5" x="1595.28" y="861.82" width="59.26" height="24.62" transform="translate(-14.68 1720.39) rotate(-55.58)"/><rect class="cls-5" x="1715.25" y="874.13" width="59.26" height="24.62"/><rect class="cls-5" x="1690.49" y="1197.41" width="24.62" height="59.26" transform="translate(-395.46 1177.41) rotate(-34.42)"/><rect class="cls-1" x="1687.42" y="1095.17" width="59.26" height="24.62" transform="translate(-132.58 1975.58) rotate(-57.96)"/><rect class="cls-1" x="1634.73" y="1332.47" width="59.26" height="24.62"/><rect class="cls-5" x="1570.49" y="1238.27" width="59.26" height="24.62" transform="translate(-426.23 1385.64) rotate(-41.82)"/><rect class="cls-5" x="1600.58" y="1077.01" width="24.62" height="59.26"/><rect class="cls-1" x="1385.09" y="1365.49" width="59.26" height="24.62" transform="translate(-521.53 1765.96) rotate(-55.58)"/><rect class="cls-4" x="1298.77" y="1290.92" width="24.62" height="59.26" transform="translate(-519.37 1655.58) rotate(-55.58)"/><rect class="cls-5" x="1361.45" y="1212.81" width="24.62" height="59.26" transform="translate(-449.85 917.92) rotate(-32.04)"/><rect class="cls-3" x="1918.61" y="791.62" width="24.62" height="59.26" transform="translate(-126.13 1235.31) rotate(-34.42)"/><rect class="cls-5" x="1526.21" y="1340.89" width="24.62" height="59.26" transform="translate(-508.74 1603.14) rotate(-48.18)"/><rect class="cls-1" x="1486.63" y="1225.27" width="24.62" height="59.26"/><rect class="cls-1" x="1449.71" y="1138.7" width="59.26" height="24.62" transform="translate(-306.37 1720.68) rotate(-55.58)"/><rect class="cls-1" x="1866.01" y="874.05" width="24.62" height="59.26" transform="translate(-197.39 713.51) rotate(-20.46)"/><rect class="cls-3" x="1325.12" y="1131.03" width="59.26" height="24.62"/><rect class="cls-1" x="1786.06" y="1221.23" width="59.26" height="24.62" transform="translate(275.93 2797.97) rotate(-79.65)"/><rect class="cls-4" x="1904.96" y="1133.37" width="24.62" height="59.26" transform="translate(225 2634.31) rotate(-72.25)"/><rect class="cls-1" x="1856.01" y="1039.89" width="24.62" height="59.26" transform="translate(-273.74 854.93) rotate(-24.07)"/><rect class="cls-5" x="1783.22" y="959.15" width="59.26" height="24.62" transform="translate(27.7 1992.94) rotate(-57.96)"/><rect class="cls-5" x="1942.51" y="947.87" width="24.62" height="59.26"/><rect class="cls-1" x="1484.19" y="1006.6" width="24.62" height="59.26" transform="translate(-323.73 1027.38) rotate(-34.42)"/><rect class="cls-5" x="1629.84" y="965.2" width="59.26" height="24.62" transform="translate(-229.01 1355.64) rotate(-41.82)"/><rect class="cls-5" x="1371.8" y="956.09" width="59.26" height="24.62"/><rect class="cls-3" x="296.26" y="1119.64" width="24.62" height="59.26" transform="translate(-562.64 338.7) rotate(-32.04)"/><rect class="cls-2" x="154.31" y="1125.68" width="24.62" height="59.26"/><rect class="cls-1" x="449.65" y="1125.68" width="24.62" height="59.26" transform="translate(-707.04 729.17) rotate(-48.18)"/><rect class="cls-4" x="9.99" y="1298.98" width="59.26" height="24.62" transform="matrix(0.53, -0.85, 0.85, 0.53, -1092.99, 649.3)"/><rect class="cls-1" x="483.94" y="1522.36" width="59.26" height="24.62" transform="translate(-1042.68 1090.8) rotate(-55.58)"/><rect class="cls-2" x="41.59" y="1136.96" width="59.26" height="24.62" transform="translate(-637.19 241.5) rotate(-34.42)"/><rect class="cls-4" x="446.4" y="1427.68" width="59.26" height="24.62" transform="translate(-997.18 1079.69) rotate(-57.96)"/><rect class="cls-1" x="476.04" y="1620.78" width="59.26" height="24.62"/><rect class="cls-1" x="351.75" y="1522.36" width="59.26" height="24.62" transform="translate(-926.19 645.34) rotate(-41.82)"/><rect class="cls-1" x="308.29" y="1402.13" width="24.62" height="59.26"/><rect class="cls-3" x="369.08" y="1340.89" width="24.62" height="59.26" transform="translate(-707.94 455.57) rotate(-34.42)"/><rect class="cls-4" x="459.21" y="1303.19" width="59.26" height="24.62"/><rect class="cls-5" x="81.72" y="1591.14" width="24.62" height="59.26" transform="translate(-899.72 336.95) rotate(-34.42)"/><rect class="cls-4" x="160.57" y="1581.79" width="59.26" height="24.62" transform="translate(-867.81 386.64) rotate(-34.42)"/><rect class="cls-1" x="39.61" y="1508.12" width="59.26" height="24.62" transform="translate(-1256.38 772.62) rotate(-57.96)"/><rect class="cls-2" x="198.27" y="1441.25" width="24.62" height="59.26" transform="translate(-794.59 376.59) rotate(-34.42)"/><rect class="cls-3" x="304.84" y="1572.7" width="24.62" height="59.26" transform="translate(-540.05 211.91) rotate(-20.46)"/><rect class="cls-3" x="71.22" y="1404.72" width="59.26" height="24.62"/><rect class="cls-5" x="525.94" y="1213.35" width="59.26" height="24.62" transform="translate(-778.14 1046.47) rotate(-57.96)"/><rect class="cls-4" x="366.18" y="1237.57" width="59.26" height="24.62"/><rect class="cls-4" x="116.55" y="1270.59" width="59.26" height="24.62" transform="translate(-994.72 678.29) rotate(-55.58)"/><rect class="cls-2" x="197.59" y="1357.05" width="59.26" height="24.62"/><rect class="cls-3" x="257.66" y="1245.99" width="24.62" height="59.26" transform="translate(-860.66 626.19) rotate(-48.18)"/></svg>